# xmcd CD database file
#
# Track frame offsets:
#	150
#	11842
#	23890
#	34642
#	45710
#	59695
#	73637
#	87500
#	101950
#	116125
#	128470
#	140182
#	151790
#	163080
#	174905
#	186935
#	198035
#	208867
#	218600
#	229582
#	241155
#	252757
#	264865
#	276215
#	286777
#	297912
#
# Disc length: 4155 seconds
#
# Revision: 0
# Processed by: cddbd v1.4PL0 Copyright (c) Steve Scherf et al.
# Submitted via: CDex 1.50beta9
#
DISCID=7910391a
DTITLE=FOUR BUDDIES - COMPLETE ON SAVOY
DYEAR=1900
DGENRE=Blues
TTITLE0=Just Can't Get Free
TTITLE1=Just to See You Smile Again
TTITLE2=I Will Wait
TTITLE3=Why at a Time Like This
TTITLE4=Don't Leave Me Now
TTITLE5=Sweet Slumber
TTITLE6=My Summer's Gone
TTITLE7=Moonlight in Your Eyes [#]
TTITLE8=If Could Have Been Me
TTITLE9=Close to You [#]
TTITLE10=Window Eyes
TTITLE11=I'm Yours [#]
TTITLE12=I Love You, Yes I Do [#]
TTITLE13=Sweet Tooth for My Baby
TTITLE14=Heart and Soul
TTITLE15=Sin (It's No Sin)
TTITLE16=Simply Say Goodbye
TTITLE17=Story Blues
TTITLE18=Nothin' Shakin' Baby [#]
TTITLE19=You're Part of Me
TTITLE20=What's the Matter With Me
TTITLE21=You Left Me Blue
TTITLE22=Ooh-Ow
TTITLE23=Got Everything I Need But You [#]
TTITLE24=My Mother's Eyes
TTITLE25=I'd Climb the Highest Mountain
EXTD=
EXTT0=
EXTT1=
EXTT2=
EXTT3=
EXTT4=
EXTT5=
EXTT6=
EXTT7=
EXTT8=
EXTT9=
EXTT10=
EXTT11=
EXTT12=
EXTT13=
EXTT14=
EXTT15=
EXTT16=
EXTT17=
EXTT18=
EXTT19=
EXTT20=
EXTT21=
EXTT22=
EXTT23=
EXTT24=
EXTT25=
PLAYORDER=
